<?xml version="1.0" encoding="utf-8"?>
<!-- Generator: Adobe Illustrator 21.0.0, SVG Export Plug-In . SVG Version: 6.00 Build 0)  -->
<svg version="1.1" id="Calque_1" xmlns="http://www.w3.org/2000/svg" xmlns:xlink="http://www.w3.org/1999/xlink" x="0px" y="0px"
	 viewBox="0 0 300 100" style="enable-background:new 0 0 300 100;" xml:space="preserve">
<style type="text/css">
	.st0{fill:#FBAA19;}
</style>
<path id="Polygone_1" class="st0" d="M30.9,18.6l7.8,21.1L60.2,41L43.5,55.3L49,77.1L30.9,64.8L12.8,77.1l5.5-21.9L1.7,41l21.5-1.2
	L30.9,18.6z"/>
<path id="Polygone_1_1_" class="st0" d="M90.4,18.6l7.8,21.1l21.5,1.2l-16.7,14.3l5.5,21.9L90.4,64.8L72.3,77.1l5.5-21.9L61.1,41
	l21.5-1.2L90.4,18.6z"/>
<path id="Polygone_1_2_" class="st0" d="M149.8,18.6l7.8,21.1l21.5,1.2l-16.7,14.3l5.5,21.9l-18.1-12.3l-18.1,12.3l5.5-21.9
	L120.6,41l21.5-1.2L149.8,18.6z"/>
<path id="Polygone_1_3_" class="st0" d="M209.3,18.6l7.8,21.1l21.5,1.2l-16.7,14.3l5.5,21.9l-18.1-12.3l-18.1,12.3l5.5-21.9L180,41
	l21.5-1.2L209.3,18.6z"/>
<path id="Polygone_1_4_" class="st0" d="M268.7,18.6l7.8,21.1L298,41l-16.7,14.3l5.5,21.9l-18.1-12.3l-18.1,12.3l5.5-21.9L239.5,41
	l21.5-1.2L268.7,18.6z"/>
<g>
</g>
<g>
</g>
<g>
</g>
<g>
</g>
<g>
</g>
<g>
</g>
</svg>
